<svg width="48" height="50" viewBox="0 0 48 50" fill="none" xmlns="http://www.w3.org/2000/svg">
<g clip-path="url(#clip0_241_669)">
<path fill-rule="evenodd" clip-rule="evenodd" d="M8 10.417C8 8.75939 8.63214 7.16968 9.75736 5.99757C10.8826 4.82547 12.4087 4.16699 14 4.16699H34C35.5913 4.16699 37.1174 4.82547 38.2426 5.99757C39.3679 7.16968 40 8.75939 40 10.417V43.8087C40 46.3503 37.24 47.8295 35.256 46.3524L24 37.9774L12.744 46.3524C10.758 47.8316 8 46.3524 8 43.8107V10.417ZM14 8.33366C13.4696 8.33366 12.9609 8.55315 12.5858 8.94385C12.2107 9.33455 12 9.86446 12 10.417V41.7857L22.256 34.1545C22.7649 33.7758 23.3746 33.5722 24 33.5722C24.6254 33.5722 25.2351 33.7758 25.744 34.1545L36 41.7857V10.417C36 9.86446 35.7893 9.33455 35.4142 8.94385C35.0391 8.55315 34.5304 8.33366 34 8.33366H14Z" fill="#87CB28"/>
</g>
<defs>
<clipPath id="clip0_241_669">
<rect width="48" height="50" fill="white"/>
</clipPath>
</defs>
</svg>
