<svg width="37" height="41" viewBox="0 0 37 41" fill="none" xmlns="http://www.w3.org/2000/svg">
<g clip-path="url(#clip0_241_983)">
<path fill-rule="evenodd" clip-rule="evenodd" d="M19.9136 1.76685C19.5971 1.67351 19.2602 1.72296 18.9767 1.90434C18.6931 2.08573 18.486 2.38425 18.4009 2.73446L12.3886 27.5898C12.3045 27.9407 12.3495 28.3142 12.5138 28.6284C12.678 28.9425 12.9482 29.1716 13.2648 29.2653L28.9409 33.9179C29.2577 34.0111 29.5949 33.9613 29.8786 33.7793C30.1622 33.5973 30.369 33.2981 30.4536 32.9474L36.471 8.09486C36.5131 7.92094 36.5238 7.73954 36.5025 7.56103C36.4812 7.38252 36.4284 7.21041 36.347 7.05454C36.2656 6.89866 36.1573 6.76208 36.0282 6.65261C35.8992 6.54314 35.7519 6.46291 35.5948 6.41653L19.9136 1.76685ZM9.27817 26.6651L13.3911 9.66759L1.34865 13.2383C1.19157 13.2847 1.04428 13.365 0.915219 13.4744C0.786153 13.5839 0.677836 13.7205 0.59646 13.8764C0.515085 14.0322 0.462248 14.2043 0.44097 14.3828C0.419692 14.5614 0.430391 14.7428 0.472455 14.9167L6.48982 39.7692C6.57443 40.12 6.78126 40.4192 7.06489 40.6011C7.34852 40.7831 7.68576 40.8329 8.00254 40.7397L23.6812 36.0872C23.7011 36.0811 23.7209 36.0744 23.7405 36.0672L12.4273 32.7133C11.8615 32.5454 11.3312 32.2557 10.8665 31.8607C10.4019 31.4656 10.0121 30.9731 9.71938 30.4111C9.42669 29.8492 9.23684 29.2288 9.1607 28.5856C9.08455 27.9423 9.12359 27.2887 9.27559 26.6622L9.27817 26.6651Z" fill="#2E266D"/>
</g>
<defs>
<clipPath id="clip0_241_983">
<rect width="36.0784" height="39.9604" fill="white" transform="translate(0.431305 0.824219)"/>
</clipPath>
</defs>
</svg>
