<svg width="23" height="24" viewBox="0 0 23 24" fill="none" xmlns="http://www.w3.org/2000/svg">
<g clip-path="url(#clip0_241_2368)">
<path d="M11.3921 2C16.3737 2 20.4117 6.477 20.4117 12C20.4117 17.523 16.3737 22 11.3921 22C6.41061 22 2.37253 17.523 2.37253 12C2.37253 6.477 6.41061 2 11.3921 2ZM11.3921 4C9.47842 4 7.64308 4.84285 6.28988 6.34315C4.93667 7.84344 4.17645 9.87827 4.17645 12C4.17645 14.1217 4.93667 16.1566 6.28988 17.6569C7.64308 19.1571 9.47842 20 11.3921 20C13.3059 20 15.1412 19.1571 16.4944 17.6569C17.8476 16.1566 18.6078 14.1217 18.6078 12C18.6078 9.87827 17.8476 7.84344 16.4944 6.34315C15.1412 4.84285 13.3059 4 11.3921 4ZM11.3921 6C11.6131 6.00003 11.8263 6.08996 11.9914 6.25272C12.1565 6.41547 12.2619 6.63975 12.2878 6.883L12.2941 7V11.586L14.7357 14.293C14.8975 14.473 14.9914 14.7144 14.9984 14.9684C15.0054 15.2223 14.9249 15.4697 14.7734 15.6603C14.6218 15.8508 14.4105 15.9703 14.1824 15.9944C13.9542 16.0185 13.7264 15.9454 13.5451 15.79L13.4603 15.707L10.7544 12.707C10.6143 12.5514 10.5242 12.349 10.4983 12.131L10.4902 12V7C10.4902 6.73478 10.5852 6.48043 10.7544 6.29289C10.9235 6.10536 11.1529 6 11.3921 6Z" fill="#2E266D"/>
</g>
<defs>
<clipPath id="clip0_241_2368">
<rect width="21.6471" height="24" fill="white" transform="translate(0.568604)"/>
</clipPath>
</defs>
</svg>
