<svg width="37" height="37" viewBox="0 0 37 37" fill="none" xmlns="http://www.w3.org/2000/svg">
<path fill-rule="evenodd" clip-rule="evenodd" d="M6.85787 4.24197C6.50896 3.90498 6.04164 3.71851 5.55658 3.72273C5.07152 3.72694 4.60751 3.9215 4.26451 4.26451C3.9215 4.60751 3.72694 5.07152 3.72273 5.55658C3.71851 6.04164 3.90498 6.50896 4.24197 6.85787L30.142 32.7579C30.4909 33.0949 30.9582 33.2813 31.4433 33.2771C31.9283 33.2729 32.3923 33.0783 32.7353 32.7353C33.0783 32.3923 33.2729 31.9283 33.2771 31.4433C33.2813 30.9582 33.0949 30.4909 32.7579 30.142L30.0328 27.4169C32.9143 25.1194 35.045 22.0148 36.1526 18.4999C33.7957 10.9945 26.7842 5.54992 18.4999 5.54992C15.5999 5.54599 12.74 6.22675 10.1527 7.53682L6.85787 4.24197ZM14.7407 12.123L17.5416 14.9257C18.1689 14.7591 18.829 14.7602 19.4558 14.9289C20.0825 15.0976 20.654 15.428 21.1129 15.8869C21.5719 16.3459 21.9022 16.9173 22.0709 17.5441C22.2396 18.1708 22.2407 18.8309 22.0741 19.4582L24.875 22.2591C25.7093 20.8458 26.0501 19.1951 25.8438 17.5669C25.6374 15.9387 24.8956 14.4253 23.7351 13.2648C22.5746 12.1042 21.0611 11.3624 19.4329 11.1561C17.8047 10.9497 16.1541 11.2886 14.7407 12.123Z" fill="#2E266D"/>
<path d="M23.0398 30.8891L18.0374 25.8848C16.2386 25.7722 14.5428 25.0069 13.2682 23.7326C11.9936 22.4584 11.2278 20.7627 11.1147 18.964L4.31962 12.1689C2.75676 14.0301 1.57671 16.1814 0.847168 18.4996C3.20407 26.0051 10.2174 31.4496 18.4999 31.4496C20.0668 31.4496 21.5875 31.2554 23.0398 30.8891Z" fill="#2E266D"/>
</svg>
