<svg width="37" height="37" viewBox="0 0 37 37" fill="none" xmlns="http://www.w3.org/2000/svg">
<path d="M18.5 22.2008C19.4813 22.2008 20.4224 21.811 21.1163 21.1171C21.8102 20.4232 22.2 19.4821 22.2 18.5008C22.2 17.5195 21.8102 16.5784 21.1163 15.8845C20.4224 15.1906 19.4813 14.8008 18.5 14.8008C17.5187 14.8008 16.5776 15.1906 15.8837 15.8845C15.1898 16.5784 14.8 17.5195 14.8 18.5008C14.8 19.4821 15.1898 20.4232 15.8837 21.1171C16.5776 21.811 17.5187 22.2008 18.5 22.2008Z" fill="#2E266D"/>
<path fill-rule="evenodd" clip-rule="evenodd" d="M0.847305 18.5008C3.20421 10.9953 10.2157 5.55078 18.5 5.55078C26.7843 5.55078 33.7958 10.9953 36.1527 18.5008C33.7958 26.0062 26.7843 31.4508 18.5 31.4508C10.2157 31.4508 3.20421 26.0062 0.847305 18.5008ZM25.9 18.5008C25.9 20.4634 25.1204 22.3456 23.7326 23.7334C22.3448 25.1211 20.4626 25.9008 18.5 25.9008C16.5374 25.9008 14.6552 25.1211 13.2674 23.7334C11.8796 22.3456 11.1 20.4634 11.1 18.5008C11.1 16.5382 11.8796 14.656 13.2674 13.2682C14.6552 11.8804 16.5374 11.1008 18.5 11.1008C20.4626 11.1008 22.3448 11.8804 23.7326 13.2682C25.1204 14.656 25.9 16.5382 25.9 18.5008Z" fill="#2E266D"/>
</svg>
