<svg width="34" height="27" viewBox="0 0 34 27" fill="none" xmlns="http://www.w3.org/2000/svg">
<path d="M20.5095 12.0496C20.6069 12.5607 20.6765 13.0718 20.6765 13.7348C20.6765 19.5225 16.7662 23.625 10.88 23.625C5.24428 23.625 0.679993 19.0943 0.679993 13.5C0.679993 7.90567 5.24428 3.375 10.88 3.375C13.6353 3.375 15.9313 4.36952 17.7125 6.02712L14.9433 8.66542C14.1918 7.94712 12.8699 7.10453 10.88 7.10453C7.40115 7.10453 4.56237 9.96384 4.56237 13.5C4.56237 17.0362 7.40115 19.8955 10.88 19.8955C14.9154 19.8955 16.4322 17.0085 16.6688 15.5305H10.88V12.0495H20.5095V12.0496ZM30.3592 12.389V9.45H27.3841V12.389H24.4233V15.3422H27.3841V18.2813H30.3592V15.3422H33.32V12.389H30.3592Z" fill="#2E266D"/>
</svg>
