<svg width="27" height="31" viewBox="0 0 27 31" fill="none" xmlns="http://www.w3.org/2000/svg">
<path fill-rule="evenodd" clip-rule="evenodd" d="M25 15.5C25 18.8152 23.683 21.9946 21.3388 24.3388C18.9946 26.683 15.8152 28 12.5 28C9.18479 28 6.00537 26.683 3.66117 24.3388C1.31696 21.9946 0 18.8152 0 15.5C0 12.1848 1.31696 9.00537 3.66117 6.66117C6.00537 4.31696 9.18479 3 12.5 3C15.8152 3 18.9946 4.31696 21.3388 6.66117C23.683 9.00537 25 12.1848 25 15.5ZM14.0625 9.25C14.0625 9.6644 13.8979 10.0618 13.6049 10.3549C13.3118 10.6479 12.9144 10.8125 12.5 10.8125C12.0856 10.8125 11.6882 10.6479 11.3951 10.3549C11.1021 10.0618 10.9375 9.6644 10.9375 9.25C10.9375 8.8356 11.1021 8.43817 11.3951 8.14515C11.6882 7.85212 12.0856 7.6875 12.5 7.6875C12.9144 7.6875 13.3118 7.85212 13.6049 8.14515C13.8979 8.43817 14.0625 8.8356 14.0625 9.25ZM10.9375 13.9375C10.5231 13.9375 10.1257 14.1021 9.83265 14.3951C9.53962 14.6882 9.375 15.0856 9.375 15.5C9.375 15.9144 9.53962 16.3118 9.83265 16.6049C10.1257 16.8979 10.5231 17.0625 10.9375 17.0625V21.75C10.9375 22.1644 11.1021 22.5618 11.3951 22.8549C11.6882 23.1479 12.0856 23.3125 12.5 23.3125H14.0625C14.4769 23.3125 14.8743 23.1479 15.1674 22.8549C15.4604 22.5618 15.625 22.1644 15.625 21.75C15.625 21.3356 15.4604 20.9382 15.1674 20.6451C14.8743 20.3521 14.4769 20.1875 14.0625 20.1875V15.5C14.0625 15.0856 13.8979 14.6882 13.6049 14.3951C13.3118 14.1021 12.9144 13.9375 12.5 13.9375H10.9375Z" fill="#2E266D"/>
</svg>
