<svg width="22" height="24" viewBox="0 0 22 24" fill="none" xmlns="http://www.w3.org/2000/svg">
<g clip-path="url(#clip0_234_596)">
<path d="M11 0.703125L22 5.49107V7.08705H20.5333C20.5333 7.30318 20.455 7.49021 20.2984 7.64814C20.1418 7.80608 19.9566 7.88505 19.7427 7.88505H2.25729C2.0434 7.88505 1.85816 7.80608 1.70156 7.64814C1.54497 7.49021 1.46667 7.30318 1.46667 7.08705H0V5.49107L11 0.703125ZM2.93333 8.68304H5.86667V18.2589H7.33333V8.68304H10.2667V18.2589H11.7333V8.68304H14.6667V18.2589H16.1333V8.68304H19.0667V18.2589H19.7427C19.9566 18.2589 20.1418 18.3379 20.2984 18.4958C20.455 18.6538 20.5333 18.8408 20.5333 19.0569V19.8549H1.46667V19.0569C1.46667 18.8408 1.54497 18.6538 1.70156 18.4958C1.85816 18.3379 2.0434 18.2589 2.25729 18.2589H2.93333V8.68304ZM21.2094 20.6529C21.4233 20.6529 21.6085 20.7319 21.7651 20.8898C21.9217 21.0477 22 21.2348 22 21.4509V23.0469H0V21.4509C0 21.2348 0.0782986 21.0477 0.234896 20.8898C0.391493 20.7319 0.576736 20.6529 0.790625 20.6529H21.2094Z" fill="#A8AAAA"/>
</g>
<defs>
<clipPath id="clip0_234_596">
<rect width="22" height="22.3438" fill="white" transform="translate(0 0.703125)"/>
</clipPath>
</defs>
</svg>
