<svg width="22" height="22" viewBox="0 0 22 22" fill="none" xmlns="http://www.w3.org/2000/svg">
<path fill-rule="evenodd" clip-rule="evenodd" d="M5.55499 4.45461C6.9991 3.01051 8.95772 2.19922 11 2.19922C13.0423 2.19922 15.0009 3.01051 16.445 4.45461C17.8891 5.89872 18.7004 7.85734 18.7004 9.89961C18.7004 11.9419 17.8891 13.9005 16.445 15.3446L11 20.7896L5.55499 15.3446C4.8399 14.6296 4.27265 13.7807 3.88564 12.8465C3.49863 11.9122 3.29944 10.9109 3.29944 9.89961C3.29944 8.88837 3.49863 7.88703 3.88564 6.95277C4.27265 6.01851 4.8399 5.16963 5.55499 4.45461ZM11 12.0996C11.5835 12.0996 12.143 11.8678 12.5556 11.4552C12.9682 11.0427 13.2 10.4831 13.2 9.89961C13.2 9.31613 12.9682 8.75656 12.5556 8.34398C12.143 7.9314 11.5835 7.69961 11 7.69961C10.4165 7.69961 9.85694 7.9314 9.44436 8.34398C9.03178 8.75656 8.79999 9.31613 8.79999 9.89961C8.79999 10.4831 9.03178 11.0427 9.44436 11.4552C9.85694 11.8678 10.4165 12.0996 11 12.0996Z" fill="black"/>
</svg>
