<svg width="37" height="37" viewBox="0 0 37 37" fill="none" xmlns="http://www.w3.org/2000/svg">
<path d="M3.70555 10.8858L18.5 18.2821L33.2944 10.8858C33.2397 9.94311 32.8266 9.05704 32.1397 8.40906C31.4529 7.76108 30.5443 7.40022 29.6 7.40039H7.4C6.45573 7.40022 5.54713 7.76108 4.86028 8.40906C4.17343 9.05704 3.76032 9.94311 3.70555 10.8858Z" fill="#2E266D"/>
<path d="M33.3 15.0176L18.5 22.4176L3.7 15.0176V25.8993C3.7 26.8806 4.08982 27.8217 4.7837 28.5156C5.47759 29.2095 6.4187 29.5993 7.4 29.5993H29.6C30.5813 29.5993 31.5224 29.2095 32.2163 28.5156C32.9102 27.8217 33.3 26.8806 33.3 25.8993V15.0176Z" fill="#2E266D"/>
</svg>
