<svg width="22" height="23" viewBox="0 0 22 23" fill="none" xmlns="http://www.w3.org/2000/svg">
<path d="M2.20312 7.04228L10.9998 11.5088L19.7965 7.04228C19.764 6.47301 19.5183 5.93793 19.1099 5.54662C18.7015 5.15531 18.1613 4.9374 17.5998 4.9375H4.39983C3.83837 4.9374 3.29812 5.15531 2.88972 5.54662C2.48132 5.93793 2.23569 6.47301 2.20312 7.04228Z" fill="#A8AAAA"/>
<path d="M19.8002 9.53809L11.0002 14.0068L2.2002 9.53809V16.1094C2.2002 16.702 2.43198 17.2703 2.84456 17.6893C3.25714 18.1084 3.81672 18.3438 4.4002 18.3438H17.6002C18.1837 18.3438 18.7432 18.1084 19.1558 17.6893C19.5684 17.2703 19.8002 16.702 19.8002 16.1094V9.53809Z" fill="#A8AAAA"/>
</svg>
