<svg width="23" height="24" viewBox="0 0 23 24" fill="none" xmlns="http://www.w3.org/2000/svg">
<path d="M11.3921 12.5C10.5549 12.5 9.75191 12.8687 9.15988 13.5251C8.56786 14.1815 8.23526 15.0717 8.23526 16C8.23526 16.9283 8.56786 17.8185 9.15988 18.4749C9.75191 19.1313 10.5549 19.5 11.3921 19.5C12.2294 19.5 13.0323 19.1313 13.6244 18.4749C14.2164 17.8185 14.549 16.9283 14.549 16C14.549 15.0717 14.2164 14.1815 13.6244 13.5251C13.0323 12.8687 12.2294 12.5 11.3921 12.5ZM10.0392 16C10.0392 15.6022 10.1817 15.2206 10.4354 14.9393C10.6892 14.658 11.0333 14.5 11.3921 14.5C11.7509 14.5 12.0951 14.658 12.3488 14.9393C12.6025 15.2206 12.7451 15.6022 12.7451 16C12.7451 16.3978 12.6025 16.7794 12.3488 17.0607C12.0951 17.342 11.7509 17.5 11.3921 17.5C11.0333 17.5 10.6892 17.342 10.4354 17.0607C10.1817 16.7794 10.0392 16.3978 10.0392 16Z" fill="#2E266D"/>
<path d="M16.3764 5.1152L13.509 0.658203L2.96601 9.9962L2.38154 9.9892V9.9992H1.92154V21.9992H20.8627V9.9992H19.995L18.2687 4.4002L16.3764 5.1152ZM18.0892 9.9992H9.04432L15.7811 7.4532L17.1539 6.9662L18.0892 9.9992ZM14.5941 5.7892L7.63997 8.4172L13.1473 3.5392L14.5941 5.7892ZM3.72546 18.1682V13.8282C4.10599 13.6787 4.45164 13.4369 4.73719 13.1205C5.02274 12.8041 5.241 12.421 5.37605 11.9992H17.4082C17.5432 12.4212 17.7614 12.8044 18.047 13.121C18.3325 13.4376 18.6782 13.6795 19.0588 13.8292V18.1692C18.6782 18.3189 18.3325 18.5608 18.047 18.8774C17.7614 19.194 17.5432 19.5772 17.4082 19.9992H5.37785C5.24272 19.5769 5.02425 19.1933 4.73838 18.8766C4.45251 18.5598 4.10645 18.3178 3.72546 18.1682Z" fill="#2E266D"/>
</svg>
