<svg width="22" height="23" viewBox="0 0 22 23" fill="none" xmlns="http://www.w3.org/2000/svg">
<path fill-rule="evenodd" clip-rule="evenodd" d="M4.3998 4.5625C4.3998 3.96991 4.63159 3.40158 5.04417 2.98256C5.45675 2.56353 6.01633 2.32813 6.5998 2.32812H15.3998C15.9833 2.32813 16.5429 2.56353 16.9554 2.98256C17.368 3.40158 17.5998 3.96991 17.5998 4.5625V17.9688C17.8915 17.9688 18.1713 18.0865 18.3776 18.296C18.5839 18.5055 18.6998 18.7896 18.6998 19.0859C18.6998 19.3822 18.5839 19.6664 18.3776 19.8759C18.1713 20.0854 17.8915 20.2031 17.5998 20.2031H14.2998C14.0081 20.2031 13.7283 20.0854 13.522 19.8759C13.3157 19.6664 13.1998 19.3822 13.1998 19.0859V16.8516C13.1998 16.5553 13.0839 16.2711 12.8776 16.0616C12.6713 15.8521 12.3915 15.7344 12.0998 15.7344H9.89981C9.60807 15.7344 9.32828 15.8521 9.12199 16.0616C8.9157 16.2711 8.7998 16.5553 8.7998 16.8516V19.0859C8.7998 19.3822 8.68391 19.6664 8.47762 19.8759C8.27133 20.0854 7.99154 20.2031 7.6998 20.2031H4.3998C4.10807 20.2031 3.82828 20.0854 3.62199 19.8759C3.4157 19.6664 3.2998 19.3822 3.2998 19.0859C3.2998 18.7896 3.4157 18.5055 3.62199 18.296C3.82828 18.0865 4.10807 17.9688 4.3998 17.9688V4.5625ZM7.6998 5.67969H9.89981V7.91406H7.6998V5.67969ZM9.89981 10.1484H7.6998V12.3828H9.89981V10.1484ZM12.0998 5.67969H14.2998V7.91406H12.0998V5.67969ZM14.2998 10.1484H12.0998V12.3828H14.2998V10.1484Z" fill="#A8AAAA"/>
</svg>
