<svg width="37" height="37" viewBox="0 0 37 37" fill="none" xmlns="http://www.w3.org/2000/svg">
<path d="M4.62484 26.2092H32.3748C33.2228 26.2092 33.9165 26.9029 33.9165 27.7508C33.9165 28.5988 33.2228 29.2925 32.3748 29.2925H4.62484C3.77692 29.2925 3.08317 28.5988 3.08317 27.7508C3.08317 26.9029 3.77692 26.2092 4.62484 26.2092ZM3.854 19.3796C4.409 19.7033 5.11817 19.5029 5.44192 18.9479L6.1665 17.6838L6.9065 18.9633C7.23025 19.5183 7.93942 19.7033 8.49442 19.395C9.04942 19.0713 9.23442 18.3775 8.92609 17.8225L8.17067 16.5275H9.63525C10.2673 16.5275 10.7915 16.0033 10.7915 15.3713C10.7915 14.7392 10.2673 14.215 9.63525 14.215H8.17067L8.89525 12.9508C9.219 12.3958 9.034 11.6867 8.479 11.3629C8.21035 11.2134 7.89387 11.1748 7.59716 11.2555C7.30046 11.3361 7.04706 11.5296 6.89109 11.7946L6.1665 13.0588L5.44192 11.7946C5.28595 11.5296 5.03255 11.3361 4.73585 11.2555C4.43914 11.1748 4.12266 11.2134 3.854 11.3629C3.299 11.6867 3.114 12.3958 3.43775 12.9508L4.16234 14.215H2.69775C2.06567 14.215 1.5415 14.7392 1.5415 15.3713C1.5415 16.0033 2.06567 16.5275 2.69775 16.5275H4.16234L3.42234 17.8071C3.114 18.3621 3.299 19.0713 3.854 19.3796ZM16.1873 19.3796C16.7423 19.7033 17.4515 19.5029 17.7753 18.9479L18.4998 17.6838L19.2398 18.9633C19.5636 19.5183 20.2728 19.7033 20.8278 19.395C21.3828 19.0713 21.5678 18.3775 21.2594 17.8225L20.5194 16.5429H21.984C22.6161 16.5429 23.1403 16.0188 23.1403 15.3867C23.1403 14.7546 22.6161 14.2304 21.984 14.2304H20.504L21.2286 12.9663C21.3811 12.6998 21.4229 12.3842 21.345 12.0872C21.2672 11.7903 21.0759 11.5357 20.8123 11.3783C20.6818 11.3024 20.5375 11.2529 20.3878 11.2328C20.2381 11.2126 20.0859 11.2221 19.9399 11.2607C19.7938 11.2994 19.6569 11.3664 19.5367 11.458C19.4166 11.5496 19.3157 11.664 19.2398 11.7946L18.4998 13.0588L17.7753 11.7946C17.6999 11.6634 17.5993 11.5484 17.4793 11.4564C17.3593 11.3643 17.2221 11.297 17.0759 11.2582C16.9296 11.2195 16.7772 11.2102 16.6273 11.2308C16.4774 11.2514 16.3331 11.3016 16.2028 11.3783C15.6478 11.7021 15.4628 12.4113 15.7865 12.9663L16.5111 14.2304H15.0311C14.88 14.2284 14.73 14.2564 14.5898 14.3128C14.4496 14.3692 14.322 14.4529 14.2144 14.5591C14.1068 14.6652 14.0214 14.7917 13.9631 14.9311C13.9048 15.0705 13.8748 15.2201 13.8748 15.3713C13.8748 16.0033 14.399 16.5275 15.0311 16.5275H16.4957L15.7557 17.8071C15.4473 18.3621 15.6323 19.0713 16.1873 19.3796ZM35.4582 15.3713C35.4582 14.7392 34.934 14.215 34.3019 14.215H32.8373L33.5619 12.9508C33.7144 12.6844 33.7562 12.3688 33.6784 12.0718C33.6005 11.7749 33.4092 11.5203 33.1457 11.3629C33.0151 11.287 32.8708 11.2375 32.7211 11.2173C32.5714 11.1972 32.4192 11.2067 32.2732 11.2453C32.1272 11.284 31.9902 11.351 31.8701 11.4426C31.75 11.5342 31.6491 11.6486 31.5732 11.7792L30.8332 13.0588L30.1086 11.7946C30.0333 11.6634 29.9327 11.5484 29.8126 11.4564C29.6926 11.3643 29.5555 11.297 29.4092 11.2582C29.263 11.2195 29.1105 11.2102 28.9606 11.2308C28.8107 11.2514 28.6665 11.3016 28.5361 11.3783C27.9811 11.7021 27.7961 12.4113 28.1198 12.9663L28.8444 14.2304H27.3798C27.2276 14.2269 27.0762 14.2538 26.9345 14.3096C26.7928 14.3653 26.6636 14.4487 26.5545 14.5549C26.4454 14.6611 26.3586 14.788 26.2991 14.9282C26.2397 15.0684 26.2087 15.219 26.2082 15.3713C26.2082 16.0033 26.7323 16.5275 27.3644 16.5275H28.829L28.089 17.8071C28.0124 17.9383 27.9629 18.0834 27.9431 18.234C27.9234 18.3846 27.934 18.5376 27.9742 18.6841C28.0144 18.8306 28.0834 18.9675 28.1773 19.087C28.2711 19.2064 28.3879 19.3059 28.5207 19.3796C29.0757 19.7033 29.7848 19.5029 30.1086 18.9479L30.8332 17.6838L31.5732 18.9633C31.8969 19.5183 32.6061 19.7033 33.1611 19.395C33.7161 19.0713 33.9011 18.3775 33.5928 17.8225L32.8528 16.5429H34.3173C34.934 16.5275 35.4582 16.0033 35.4582 15.3713Z" fill="#2E266D"/>
</svg>
