<svg width="22" height="24" viewBox="0 0 22 24" fill="none" xmlns="http://www.w3.org/2000/svg">
<path d="M2.2002 4.32031C2.2002 4.02402 2.31609 3.73985 2.52238 3.53034C2.72867 3.32083 3.00846 3.20313 3.3002 3.20312H5.6685C5.92887 3.20325 6.18076 3.29717 6.37936 3.46819C6.57796 3.63921 6.71039 3.87623 6.7531 4.13709L7.5671 9.09182C7.60599 9.32779 7.56927 9.57021 7.46234 9.78339C7.3554 9.99658 7.18391 10.1693 6.9731 10.276L5.2703 11.1396C5.88091 12.6765 6.79031 14.0726 7.94415 15.2444C9.09798 16.4163 10.4726 17.3399 11.9858 17.9601L12.8372 16.2306C12.9423 16.0167 13.1121 15.8427 13.3218 15.7341C13.5315 15.6255 13.7699 15.5881 14.0021 15.6274L18.8806 16.4541C19.1374 16.4975 19.3708 16.632 19.5392 16.8337C19.7076 17.0354 19.8001 17.2912 19.8002 17.5556V19.9609C19.8002 20.2572 19.6843 20.5414 19.478 20.7509C19.2717 20.9604 18.9919 21.0781 18.7002 21.0781H16.5002C8.6022 21.0781 2.2002 14.5761 2.2002 6.55469V4.32031Z" fill="#A8AAAA"/>
</svg>
