<svg width="37" height="37" viewBox="0 0 37 37" fill="none" xmlns="http://www.w3.org/2000/svg">
<path d="M3.69995 5.54922C3.69995 5.05857 3.89486 4.58801 4.2418 4.24107C4.58875 3.89413 5.0593 3.69922 5.54995 3.69922H9.533C9.97091 3.69942 10.3945 3.85495 10.7286 4.13815C11.0626 4.42135 11.2853 4.81384 11.3571 5.24582L12.7261 13.4506C12.7915 13.8413 12.7298 14.2428 12.5499 14.5958C12.3701 14.9488 12.0817 15.2348 11.7271 15.4116L8.8633 16.8416C9.89025 19.3866 11.4197 21.6984 13.3602 23.6389C15.3008 25.5795 17.6126 27.1089 20.1576 28.1359L21.5895 25.2721C21.7662 24.9179 22.0518 24.6297 22.4045 24.4499C22.7571 24.27 23.1581 24.2081 23.5486 24.2731L31.7534 25.6421C32.1853 25.7139 32.5778 25.9366 32.861 26.2706C33.1442 26.6046 33.2997 27.0283 33.3 27.4662V31.4492C33.3 31.9399 33.105 32.4104 32.7581 32.7574C32.4112 33.1043 31.9406 33.2992 31.45 33.2992H27.75C14.467 33.2992 3.69995 22.5322 3.69995 9.24922V5.54922Z" fill="#2E266D"/>
</svg>
