<svg width="34" height="38" viewBox="0 0 34 38" fill="none" xmlns="http://www.w3.org/2000/svg">
<path d="M29.2009 33.1679L20.8578 23.927M23.6388 16.2263C23.6388 17.6421 23.387 19.044 22.8979 20.352C22.4087 21.66 21.6917 22.8485 20.7879 23.8496C19.884 24.8507 18.811 25.6448 17.63 26.1866C16.4491 26.7284 15.1834 27.0073 13.9051 27.0073C12.6269 27.0073 11.3612 26.7284 10.1802 26.1866C8.99929 25.6448 7.92626 24.8507 7.0224 23.8496C6.11855 22.8485 5.40157 21.66 4.91241 20.352C4.42325 19.044 4.17148 17.6421 4.17148 16.2263C4.17148 13.367 5.19699 10.6248 7.0224 8.60299C8.84782 6.58116 11.3236 5.44531 13.9051 5.44531C16.4867 5.44531 18.9625 6.58116 20.7879 8.60299C22.6133 10.6248 23.6388 13.367 23.6388 16.2263Z" stroke="#2E266D" stroke-width="2" stroke-linecap="round" stroke-linejoin="round"/>
</svg>
