<svg width="37" height="37" viewBox="0 0 37 37" fill="none" xmlns="http://www.w3.org/2000/svg">
<path fill-rule="evenodd" clip-rule="evenodd" d="M18.5 16.6508C19.972 16.6508 21.3837 16.0661 22.4245 15.0252C23.4653 13.9844 24.05 12.5727 24.05 11.1008C24.05 9.62883 23.4653 8.21717 22.4245 7.17634C21.3837 6.13551 19.972 5.55078 18.5 5.55078C17.0281 5.55078 15.6164 6.13551 14.5756 7.17634C13.5348 8.21717 12.95 9.62883 12.95 11.1008C12.95 12.5727 13.5348 13.9844 14.5756 15.0252C15.6164 16.0661 17.0281 16.6508 18.5 16.6508ZM5.55005 33.3008C5.55005 31.6002 5.88501 29.9162 6.53581 28.345C7.18661 26.7739 8.1405 25.3463 9.34302 24.1437C10.5455 22.9412 11.9731 21.9873 13.5443 21.3365C15.1155 20.6857 16.7994 20.3508 18.5 20.3508C20.2007 20.3508 21.8846 20.6857 23.4558 21.3365C25.027 21.9873 26.4546 22.9412 27.6571 24.1437C28.8596 25.3463 29.8135 26.7739 30.4643 28.345C31.1151 29.9162 31.45 31.6002 31.45 33.3008H5.55005Z" fill="#2E266D"/>
</svg>
