<svg width="22" height="23" viewBox="0 0 22 23" fill="none" xmlns="http://www.w3.org/2000/svg">
<path d="M14.9968 13.3779C15.0702 12.7635 15.1252 12.149 15.1252 11.516C15.1252 10.8829 15.0702 10.2684 14.9968 9.65397H18.0952C18.2418 10.2498 18.3335 10.8736 18.3335 11.516C18.3335 12.1583 18.2418 12.7821 18.0952 13.3779M13.3743 18.5542C13.9243 17.5208 14.346 16.4036 14.6393 15.2399H17.3435C16.4554 16.7931 15.0464 17.9696 13.3743 18.5542ZM13.1452 13.3779H8.85516C8.7635 12.7635 8.7085 12.149 8.7085 11.516C8.7085 10.8829 8.7635 10.2591 8.85516 9.65397H13.1452C13.2277 10.2591 13.2918 10.8829 13.2918 11.516C13.2918 12.149 13.2277 12.7635 13.1452 13.3779ZM11.0002 18.9266C10.2393 17.8094 9.62516 16.5712 9.24933 15.2399H12.751C12.3752 16.5712 11.761 17.8094 11.0002 18.9266ZM7.3335 7.79199H4.65683C5.53558 6.23448 6.9436 5.05604 8.61683 4.47767C8.06683 5.51107 7.65433 6.62826 7.3335 7.79199ZM4.65683 15.2399H7.3335C7.65433 16.4036 8.06683 17.5208 8.61683 18.5542C6.94691 17.9699 5.54076 16.793 4.65683 15.2399ZM3.90516 13.3779C3.7585 12.7821 3.66683 12.1583 3.66683 11.516C3.66683 10.8736 3.7585 10.2498 3.90516 9.65397H7.0035C6.93016 10.2684 6.87516 10.8829 6.87516 11.516C6.87516 12.149 6.93016 12.7635 7.0035 13.3779M11.0002 4.09596C11.761 5.21315 12.3752 6.46068 12.751 7.79199H9.24933C9.62516 6.46068 10.2393 5.21315 11.0002 4.09596ZM17.3435 7.79199H14.6393C14.352 6.63906 13.9272 5.52606 13.3743 4.47767C15.061 5.06419 16.4635 6.24655 17.3435 7.79199ZM11.0002 2.20605C5.931 2.20605 1.8335 6.39551 1.8335 11.516C1.8335 13.9851 2.79927 16.3531 4.51835 18.099C5.36955 18.9635 6.38008 19.6493 7.49223 20.1172C8.60438 20.585 9.79638 20.8258 11.0002 20.8258C13.4313 20.8258 15.7629 19.845 17.482 18.099C19.2011 16.3531 20.1668 13.9851 20.1668 11.516C20.1668 10.2934 19.9297 9.08274 19.4691 7.95321C19.0084 6.82368 18.3332 5.79736 17.482 4.93286C16.6308 4.06836 15.6202 3.38259 14.5081 2.91473C13.3959 2.44686 12.2039 2.20605 11.0002 2.20605Z" fill="#A8AAAA"/>
</svg>
